<?xml version="1.0" standalone="no"?>
<!DOCTYPE svg PUBLIC "-//W3C//DTD SVG 20010904//EN"
 "http://www.w3.org/TR/2001/REC-SVG-20010904/DTD/svg10.dtd">
<svg version="1.0" xmlns="http://www.w3.org/2000/svg"
 width="2816.000000pt" height="1504.000000pt" viewBox="0 0 2816.000000 1504.000000"
 preserveAspectRatio="xMidYMid meet">

<g transform="translate(0.000000,1504.000000) scale(0.100000,-0.100000)"
fill="#000000" stroke="none">
<path d="M13972 12339 c-94 -8 -235 -41 -282 -66 -14 -7 -29 -13 -34 -13 -16
0 -169 -89 -216 -125 -25 -19 -51 -38 -59 -42 -8 -3 -22 -14 -31 -22 -8 -9
-42 -38 -74 -66 -33 -27 -64 -54 -70 -60 -136 -121 -247 -227 -331 -317 -123
-132 -152 -165 -210 -238 -33 -41 -65 -81 -72 -88 -15 -15 -113 -160 -167
-245 -180 -285 -304 -612 -336 -887 -37 -323 98 -721 331 -974 l47 -51 138
145 c77 80 162 168 189 196 l50 50 -53 75 c-30 41 -67 100 -83 131 -136 269
-82 588 171 1011 55 91 218 320 240 337 4 3 34 37 67 75 85 99 298 305 444
427 24 21 55 47 69 59 57 48 145 102 198 120 74 26 230 36 313 20 72 -14 210
-78 239 -111 8 -8 119 -80 124 -80 3 0 22 -12 43 -26 21 -14 47 -30 58 -35 11
-5 34 -18 50 -29 17 -11 37 -23 45 -26 8 -4 22 -12 30 -19 8 -7 44 -28 80 -47
36 -20 97 -57 135 -82 39 -25 75 -46 81 -46 5 0 44 9 85 19 195 51 420 74 663
70 102 -2 186 -3 186 -2 0 1 -238 145 -320 193 -8 5 -50 29 -93 54 -43 25 -80
46 -83 46 -3 0 -29 16 -59 35 -30 19 -77 46 -104 60 -28 14 -81 45 -118 69
-68 44 -269 162 -373 219 -30 16 -74 43 -98 58 -24 16 -45 29 -47 29 -3 0 -31
17 -62 37 -77 49 -220 111 -313 135 -67 17 -240 39 -280 36 -8 0 -57 -4 -108
-9z"/>
<path d="M12515 11590 c-71 -44 -137 -82 -145 -86 -8 -4 -32 -18 -53 -31 -22
-14 -73 -43 -115 -65 -43 -23 -104 -58 -137 -78 -84 -52 -372 -218 -478 -274
-192 -103 -334 -226 -428 -370 -97 -148 -160 -309 -189 -481 -17 -106 -9
-2422 9 -2485 43 -145 101 -277 164 -370 61 -90 177 -207 264 -267 200 -137
477 -232 774 -264 148 -16 513 -5 654 19 395 70 709 209 1048 464 42 33 77 63
77 67 0 5 -17 24 -37 42 -21 17 -109 100 -196 183 -87 83 -161 152 -165 154
-4 1 -30 -16 -57 -39 -135 -112 -301 -202 -485 -263 -175 -59 -341 -87 -552
-93 -143 -5 -187 -2 -305 17 -382 62 -564 193 -640 461 -17 60 -18 131 -18
1184 l0 1120 28 79 c30 86 94 192 148 245 51 50 142 109 234 152 46 22 87 39
92 39 5 0 20 26 33 58 45 104 180 362 206 393 8 8 14 19 14 23 0 6 49 86 60
96 3 3 10 13 15 22 29 48 95 140 154 214 37 45 78 97 91 114 13 17 35 43 47
56 19 21 31 46 21 43 -2 0 -61 -36 -133 -79z"/>
<path d="M15655 11203 c-120 -10 -311 -37 -385 -54 -127 -29 -274 -71 -284
-80 -6 -5 -16 -9 -24 -9 -17 0 -220 -85 -279 -117 -108 -58 -139 -77 -230
-138 -54 -36 -127 -92 -163 -124 l-65 -60 175 -171 c96 -94 185 -178 198 -187
21 -15 24 -14 45 3 12 11 36 29 52 40 17 11 60 41 97 67 38 26 70 47 73 47 2
0 28 14 57 31 66 39 324 133 438 160 143 34 278 49 440 49 285 0 452 -39 597
-138 115 -79 189 -173 235 -298 20 -56 22 -84 30 -514 5 -250 7 -765 6 -1145
l-4 -690 -28 -75 c-44 -115 -84 -179 -155 -250 -70 -69 -153 -119 -260 -156
-59 -21 -67 -27 -78 -59 -28 -80 -147 -307 -225 -430 -77 -120 -229 -328 -378
-517 -34 -43 -58 -78 -54 -78 3 0 32 17 63 39 82 56 218 138 366 221 72 40
146 83 165 95 61 39 300 179 435 255 204 116 263 158 375 270 145 147 221 280
288 505 l26 90 4 1175 c2 1064 1 1184 -14 1270 -20 114 -51 204 -110 323 -134
271 -314 428 -624 546 -194 74 -578 123 -805 104z"/>
<path d="M13266 10980 c-60 -66 -236 -310 -236 -326 0 -3 -11 -22 -25 -42 -14
-20 -25 -42 -25 -49 0 -7 19 -17 43 -23 165 -44 267 -92 415 -199 89 -64 160
-131 805 -766 247 -242 452 -441 457 -443 8 -3 35 22 170 164 92 97 160 172
189 208 13 16 -23 54 -430 458 -389 386 -617 606 -700 673 -165 134 -257 204
-319 242 -102 63 -264 143 -288 143 -11 0 -36 -18 -56 -40z"/>
<path d="M15630 10474 c-8 -1 -44 -6 -80 -9 -36 -3 -71 -9 -78 -13 -8 -6 -4
-28 17 -82 54 -140 64 -338 26 -484 -31 -116 -136 -295 -257 -436 -90 -105
-474 -505 -780 -814 l-257 -259 32 -37 c18 -21 59 -62 92 -91 33 -30 102 -94
153 -144 51 -49 98 -91 105 -93 19 -4 874 861 1029 1041 159 184 236 294 305
432 100 200 141 351 149 550 7 152 -4 256 -36 366 l-20 66 -76 7 c-77 6 -296
7 -324 0z"/>
<path d="M13099 9532 c-612 -613 -722 -744 -866 -1030 -140 -277 -179 -497
-138 -773 19 -129 35 -165 72 -173 118 -26 305 -32 433 -16 117 16 112 11 89
78 -59 169 -75 334 -43 456 42 164 195 408 381 607 106 114 518 525 741 739
100 96 182 180 182 186 0 15 -375 385 -389 384 -3 -1 -211 -207 -462 -458z"/>
<path d="M13359 8772 c-52 -54 -134 -139 -183 -190 -49 -51 -85 -96 -81 -100
4 -4 68 -72 144 -151 185 -195 845 -838 956 -932 219 -185 439 -331 594 -393
62 -25 65 -25 84 -8 49 43 317 420 317 446 0 3 -46 19 -102 37 -157 48 -253
102 -420 234 -175 139 -352 307 -789 746 -224 225 -411 409 -416 409 -5 0 -52
-44 -104 -98z"/>
<path d="M15659 8821 c-19 -22 -100 -109 -181 -194 -82 -85 -148 -157 -148
-160 0 -4 14 -22 31 -41 45 -52 133 -232 155 -317 53 -207 -7 -467 -174 -758
-193 -335 -451 -636 -812 -944 -193 -166 -298 -212 -465 -204 -148 7 -163 14
-507 233 -79 50 -206 128 -283 174 -77 46 -141 87 -143 91 -5 14 -28 11 -147
-16 -183 -41 -350 -57 -587 -58 -120 -1 -215 -4 -210 -8 4 -3 68 -42 142 -86
74 -44 241 -144 370 -222 129 -79 251 -152 270 -162 19 -10 53 -30 75 -44 22
-13 57 -34 78 -45 21 -12 62 -37 92 -56 30 -18 57 -34 60 -34 4 0 30 -15 58
-34 111 -72 310 -189 363 -212 116 -51 214 -68 399 -68 147 -1 180 2 248 22
236 68 479 238 826 577 233 229 336 350 529 629 39 58 72 108 72 112 0 4 6 15
14 23 25 29 125 226 171 336 56 136 112 351 126 486 28 270 -76 634 -245 858
-28 37 -67 88 -86 114 -19 25 -40 46 -46 47 -6 0 -27 -18 -45 -39z"/>
<path d="M13980 4753 c1 -131 2 -278 1 -326 l-1 -88 -47 39 c-187 156 -468
162 -698 16 -272 -172 -368 -601 -208 -932 53 -109 170 -225 285 -281 69 -34
100 -43 184 -53 193 -22 342 21 452 129 l52 52 0 -85 0 -84 145 0 145 0 0 925
0 925 -156 0 -156 0 2 -237z m-199 -564 c113 -60 179 -160 200 -301 21 -143
-15 -287 -94 -375 -100 -110 -280 -142 -423 -74 -73 34 -116 82 -163 180 -35
74 -36 79 -36 196 0 115 1 123 33 190 51 107 134 184 232 212 74 21 181 9 251
-28z"/>
<path d="M6995 4887 c-3 -6 -6 -71 -8 -142 l-2 -130 273 -3 272 -2 0 -735 0
-735 160 0 160 0 0 735 0 735 273 2 272 3 3 143 3 142 -701 0 c-552 0 -702 -3
-705 -13z"/>
<path d="M14683 4893 l-23 -4 0 -875 0 -874 590 0 590 0 0 139 c0 135 -1 139
-22 145 -13 3 -209 6 -435 6 l-413 0 -2 733 -3 732 -130 1 c-71 1 -140 0 -152
-3z"/>
<path d="M10535 4485 c-92 -20 -165 -57 -222 -112 -29 -28 -54 -48 -57 -45 -4
3 -6 38 -6 79 l0 73 -145 0 -145 0 2 -912 3 -913 105 1 c58 1 124 2 148 3 l42
1 0 315 c0 173 2 315 5 315 2 0 23 -18 46 -40 159 -151 467 -171 685 -45 27
15 81 60 119 99 119 121 172 250 182 442 13 250 -48 431 -193 579 -136 139
-367 204 -569 160z m241 -285 c54 -26 134 -102 159 -151 50 -95 67 -251 41
-362 -20 -86 -46 -136 -93 -182 -116 -112 -280 -135 -431 -58 -172 87 -241
362 -144 576 28 59 82 120 145 162 76 49 235 57 323 15z"/>
<path d="M12030 4493 c-212 -32 -387 -160 -475 -345 -57 -121 -76 -206 -77
-338 0 -252 100 -442 304 -581 173 -118 438 -142 663 -62 80 29 139 67 209
136 l49 48 -89 90 c-49 49 -94 89 -100 89 -6 0 -18 -7 -25 -17 -28 -33 -120
-84 -181 -99 -93 -24 -236 -15 -310 18 -100 46 -187 149 -212 251 l-6 27 494
0 495 0 7 36 c18 99 -19 311 -74 419 -57 114 -186 233 -306 284 -93 39 -265
60 -366 44z m226 -268 c61 -18 126 -72 171 -142 29 -46 63 -128 63 -155 0 -5
-160 -8 -355 -8 -195 0 -355 4 -355 8 0 16 33 107 48 132 43 71 138 151 202
171 43 13 174 10 226 -6z"/>
<path d="M16495 4486 c-155 -36 -242 -82 -341 -181 -84 -84 -142 -192 -175
-324 -30 -118 -23 -290 15 -407 65 -200 224 -358 426 -423 85 -28 242 -38 340
-21 252 42 450 219 525 470 22 72 31 268 16 353 -43 249 -209 438 -451 514
-96 30 -267 39 -355 19z m281 -285 c257 -114 309 -525 91 -716 -136 -119 -363
-111 -482 16 -124 133 -158 335 -82 493 57 119 138 195 237 223 59 17 179 9
236 -16z"/>
<path d="M18065 4494 c-11 -2 -45 -9 -75 -15 -220 -44 -397 -213 -472 -449
-20 -64 -23 -96 -23 -220 0 -124 3 -156 23 -220 37 -118 79 -187 167 -276 123
-123 249 -178 440 -191 303 -20 574 155 670 434 66 192 51 440 -37 606 -60
112 -221 253 -335 292 -104 36 -278 55 -358 39z m191 -278 c103 -27 201 -121
245 -233 13 -36 24 -90 27 -142 14 -246 -118 -418 -337 -438 -156 -14 -282 62
-355 216 -30 63 -31 72 -31 191 0 106 4 133 23 181 31 78 85 143 152 184 89
54 178 67 276 41z"/>
<path d="M19680 4493 c-82 -13 -219 -82 -266 -134 -19 -21 -19 -21 -24 47 l-5
69 -141 3 -141 3 -7 -77 c-8 -100 -8 -1039 1 -1166 l6 -98 148 0 148 0 3 413
c4 476 5 485 86 566 62 62 127 93 211 99 117 8 199 -45 254 -166 22 -46 22
-55 21 -479 l-1 -433 159 0 158 0 0 398 c0 422 4 463 50 536 78 127 248 182
375 122 61 -29 97 -65 127 -131 23 -49 23 -55 26 -487 l3 -438 154 0 155 0 0
439 c0 494 -4 534 -66 659 -65 128 -169 209 -319 247 -183 47 -406 -13 -544
-145 l-55 -52 -20 28 c-29 42 -85 92 -132 120 -82 49 -251 75 -364 57z"/>
<path d="M8380 4477 c0 -1 21 -52 46 -112 25 -61 110 -265 189 -455 175 -423
220 -532 247 -590 35 -75 68 -163 68 -180 0 -24 -65 -153 -86 -172 -31 -28
-106 -58 -145 -58 -45 0 -112 23 -161 55 l-37 24 -34 -62 c-19 -34 -46 -85
-61 -114 l-26 -52 33 -27 c84 -71 238 -107 374 -87 211 31 308 134 443 468 23
55 45 109 50 120 28 65 82 197 94 233 9 23 22 57 30 75 8 17 54 129 101 247
47 118 90 224 95 235 12 25 169 414 177 438 5 16 -5 17 -142 15 l-148 -3 -20
-34 c-19 -35 -53 -118 -112 -271 -18 -47 -78 -200 -135 -340 -56 -140 -105
-265 -109 -277 -14 -50 -21 -35 -197 407 -36 91 -100 245 -141 343 l-75 177
-159 0 c-87 0 -159 -1 -159 -3z"/>
</g>
</svg>
